<svg id="Layer_1" data-name="Layer 1" xmlns="http://www.w3.org/2000/svg" viewBox="0 0 32 32">
<path d="M16 0C16.5523 0 17 0.447715 17 1V3H23C23.5523 3 24 3.44772 24 4V11C24 11.5523 23.5523 12 23 12C22.4477 12 22 11.5523 22 11V5H10V15C10 15.5523 9.55228 16 9 16C8.44771 16 8 15.5523 8 15V4C8 3.44772 8.44771 3 9 3H15V1C15 0.447715 15.4477 0 16 0Z" fill="#00968F"/>
<path d="M5 23C5 22.4477 5.44772 22 6 22H9C9.55228 22 10 22.4477 10 23C10 23.5523 9.55228 24 9 24H6C5.44772 24 5 23.5523 5 23Z" fill="#00968F"/>
<path d="M5 27C5 26.4477 5.44772 26 6 26H9C9.55228 26 10 26.4477 10 27C10 27.5523 9.55228 28 9 28H6C5.44772 28 5 27.5523 5 27Z" fill="#00968F"/>
<path d="M22 23C22 22.4477 22.4477 22 23 22H26C26.5523 22 27 22.4477 27 23C27 23.5523 26.5523 24 26 24H23C22.4477 24 22 23.5523 22 23Z" fill="#00968F"/>
<path d="M23 18C22.4477 18 22 18.4477 22 19C22 19.5523 22.4477 20 23 20H26C26.5523 20 27 19.5523 27 19C27 18.4477 26.5523 18 26 18H23Z" fill="#00968F"/>
<path d="M23 26C22.4477 26 22 26.4477 22 27C22 27.5523 22.4477 28 23 28H26C26.5523 28 27 27.5523 27 27C27 26.4477 26.5523 26 26 26H23Z" fill="#00968F"/>
<path fill-rule="evenodd" clip-rule="evenodd" d="M1 32C0.447715 32 0 31.5523 0 31V19C0 18.4477 0.447715 18 1 18H14C14.5523 18 15 18.4477 15 19V30H17V15C17 14.4477 17.4477 14 18 14H31C31.5523 14 32 14.4477 32 15V31C32 31.5523 31.5523 32 31 32H18C17.9896 32 17.9793 31.9998 17.969 31.9995C17.9587 31.9998 17.9484 32 17.938 32H1ZM2 30V20H13V30H2ZM30 30H19V16H30V30Z" fill="#00968F"/>
</svg>
