<svg id="Layer_1" data-name="Layer 1" xmlns="http://www.w3.org/2000/svg" viewBox="0 0 32 32">
<path fill-rule="evenodd" clip-rule="evenodd" d="M6.32623 3.25672C6.74557 2.89731 7.37687 2.9459 7.73628 3.36523L9.99728 6.00323C10.0047 6.01187 10.0119 6.02063 10.019 6.02951L11.886 8.36451C12.0404 8.55751 12.1177 8.80082 12.1033 9.0475L11.9153 12.2555C11.8884 12.7149 11.5514 13.0966 11.0989 13.1803L7.71498 13.8064L5.73246 16.1504L6.66485 18.0859L7.73565 20.0043L10.3682 22.0423C10.7815 22.3623 10.8787 22.9467 10.591 23.3833L8.761 26.1603C8.6546 26.3217 8.50367 26.4489 8.32649 26.5263L5.87149 27.5993C5.36543 27.8205 4.77588 27.5895 4.5547 27.0835C4.33352 26.5774 4.56445 25.9879 5.07051 25.7667L7.25403 24.8124L8.41112 23.0565L6.34984 21.4607C6.24328 21.3782 6.1545 21.2751 6.08881 21.1574L4.90381 19.0344C4.89404 19.0169 4.88479 18.9991 4.87609 18.981L3.64909 16.434C3.47783 16.0785 3.53164 15.6555 3.78647 15.3542L6.41846 12.2422C6.56756 12.066 6.77306 11.9467 7.00008 11.9047L9.96456 11.3562L10.0843 9.31369L8.46762 7.29181L6.21772 4.66677C5.85831 4.24743 5.9069 3.61613 6.32623 3.25672Z" fill="#00968F"/>
<path fill-rule="evenodd" clip-rule="evenodd" d="M14.5382 0.0674753C15.0902 0.0504507 15.5515 0.484152 15.5685 1.03617L15.5932 1.83741L17.0643 2.88559C17.1162 2.9226 17.1645 2.9645 17.2085 3.0107L18.9915 4.8847C19.1072 5.00629 19.1904 5.15505 19.2335 5.31725L19.7837 7.38847L20.9542 8.19591L22.6209 7.53199C22.7419 7.48382 22.871 7.45973 23.0012 7.46105L25.5499 7.48703L27.5228 6.23389C27.989 5.93777 28.607 6.07565 28.9031 6.54184C29.1992 7.00803 29.0614 7.626 28.5952 7.92212L26.3722 9.33412C26.2089 9.43779 26.0192 9.49192 25.8258 9.48995L23.1779 9.46296L21.1971 10.252C20.8864 10.3758 20.5344 10.336 20.2592 10.1462L18.3442 8.82515C18.1481 8.68987 18.0067 8.48901 17.9455 8.25875L17.3662 6.07797L15.8256 4.45877L14.0287 3.17841C13.7742 2.99707 13.6191 2.70718 13.6095 2.39483L13.5695 1.09783C13.5525 0.545803 13.9862 0.0844999 14.5382 0.0674753Z" fill="#00968F"/>
<path fill-rule="evenodd" clip-rule="evenodd" d="M20.6102 12.4669C20.803 12.431 21.0022 12.4526 21.1828 12.5291L24.0698 13.7511C24.2256 13.817 24.3621 13.9214 24.4666 14.0545L26.4746 16.6125C26.6369 16.8193 26.7113 17.0818 26.6816 17.343L26.3746 20.042C26.3494 20.2637 26.2507 20.4707 26.0943 20.6298L24.2027 22.5552L22.527 24.4495C22.4827 24.4996 22.4336 24.5451 22.3802 24.5853L20.3612 26.1083C20.2434 26.1972 20.1074 26.2589 19.9629 26.289L17.3319 26.837C16.884 26.9303 16.43 26.7077 16.2293 26.2966L14.8233 23.4156C14.6935 23.1495 14.6882 22.8396 14.8089 22.5692L15.9562 20.0002L15.2318 17.4747C15.1722 17.2669 15.1815 17.0454 15.2584 16.8433L16.4434 13.7293C16.5674 13.4034 16.8523 13.1656 17.1952 13.1019L20.6102 12.4669ZM18.1129 14.9655L17.2461 17.2434L17.9792 19.7993C18.0442 20.0257 18.0271 20.2677 17.9311 20.4828L16.8256 22.9582L17.6856 24.7204L19.3357 24.3767L21.0956 23.0492L22.722 21.2105C22.7335 21.1974 22.7454 21.1846 22.7577 21.1722L24.4263 19.4738L24.648 17.5247L23.0527 15.4924L20.6801 14.4881L18.1129 14.9655Z" fill="#00968F"/>
<path fill-rule="evenodd" clip-rule="evenodd" d="M16 2C8.26801 2 2 8.26801 2 16C2 23.732 8.26801 30 16 30C23.732 30 30 23.732 30 16C30 8.26801 23.732 2 16 2ZM0 16C0 7.16344 7.16344 0 16 0C24.8366 0 32 7.16344 32 16C32 24.8366 24.8366 32 16 32C7.16344 32 0 24.8366 0 16Z" fill="#00968F"/>
</svg>
